<?xml version="1.0" encoding="UTF-8"?>
<svg version="1.1" xmlns="http://www.w3.org/2000/svg" width="1060" height="220">
<path d="M0 0 C0.89589844 0.01417969 1.79179687 0.02835938 2.71484375 0.04296875 C4.06255859 0.05263672 4.06255859 0.05263672 5.4375 0.0625 C7.65234375 0.23046875 7.65234375 0.23046875 8.65234375 1.23046875 C8.73934717 2.86519757 8.75935438 4.5036093 8.75 6.140625 C8.74677734 7.12998047 8.74355469 8.11933594 8.74023438 9.13867188 C8.73185547 10.17958984 8.72347656 11.22050781 8.71484375 12.29296875 C8.71033203 13.33775391 8.70582031 14.38253906 8.70117188 15.45898438 C8.68934288 18.04953535 8.67286064 20.63997434 8.65234375 23.23046875 C10.63234375 23.23046875 12.61234375 23.23046875 14.65234375 23.23046875 C14.64187012 22.60479004 14.63139648 21.97911133 14.62060547 21.33447266 C14.57911184 18.50817865 14.55303902 15.68194864 14.52734375 12.85546875 C14.50220703 11.37820312 14.50220703 11.37820312 14.4765625 9.87109375 C14.47011719 8.93007813 14.46367187 7.9890625 14.45703125 7.01953125 C14.44655762 6.15021973 14.43608398 5.2809082 14.42529297 4.38525391 C14.65234375 2.23046875 14.65234375 2.23046875 16.65234375 0.23046875 C23.50285933 -1.21378987 33.48630707 -2.16278636 39.71777344 1.41699219 C43.38767382 4.51201573 46.08953613 8.19719774 48.65234375 12.23046875 C48.70132813 11.44800781 48.7503125 10.66554688 48.80078125 9.859375 C48.87554687 8.84746094 48.9503125 7.83554687 49.02734375 6.79296875 C49.09695312 5.78363281 49.1665625 4.77429688 49.23828125 3.734375 C49.37492187 2.90808594 49.5115625 2.08179687 49.65234375 1.23046875 C53.99505033 -0.94088454 59.78580335 -0.03788075 64.60839844 -0.06469727 C66.04372047 -0.07616821 67.47900149 -0.09654222 68.9140625 -0.1262207 C77.0311243 -0.29407584 83.69430305 -0.39937258 90.65234375 4.23046875 C91.14734375 4.72546875 91.14734375 4.72546875 91.65234375 5.23046875 C92.31234375 3.58046875 92.97234375 1.93046875 93.65234375 0.23046875 C98.60025669 0.20578615 103.54813395 0.18761709 108.49609375 0.17553711 C110.18001937 0.17050222 111.86394061 0.16367394 113.54785156 0.1550293 C115.96550578 0.14292679 118.38310231 0.13723207 120.80078125 0.1328125 C121.55604095 0.12765121 122.31130066 0.12248993 123.08944702 0.11717224 C128.42460034 0.11659704 128.42460034 0.11659704 130.65234375 1.23046875 C130.65234375 8.49046875 130.65234375 15.75046875 130.65234375 23.23046875 C135.27234375 23.23046875 139.89234375 23.23046875 144.65234375 23.23046875 C144.98234375 19.93046875 145.31234375 16.63046875 145.65234375 13.23046875 C144.00234375 12.57046875 142.35234375 11.91046875 140.65234375 11.23046875 C140.59834639 9.77253991 140.55955198 8.31404163 140.52734375 6.85546875 C140.50414062 6.04335938 140.4809375 5.23125 140.45703125 4.39453125 C140.65234375 2.23046875 140.65234375 2.23046875 142.65234375 0.23046875 C144.81555176 -0.01676941 144.81555176 -0.01676941 147.52929688 -0.01245117 C148.54374878 -0.0155278 149.55820068 -0.01860443 150.60339355 -0.02177429 C151.70235962 -0.01458878 152.80132568 -0.00740326 153.93359375 0 C155.62023132 0.00068733 155.62023132 0.00068733 157.34094238 0.00138855 C159.72160902 0.00441363 162.10227363 0.01230751 164.48291016 0.0246582 C168.13711521 0.04289276 171.79106674 0.04516808 175.4453125 0.04492188 C177.75390845 0.04983774 180.06250268 0.05566636 182.37109375 0.0625 C183.47005981 0.06361282 184.56902588 0.06472565 185.70129395 0.06587219 C187.2229718 0.07544197 187.2229718 0.07544197 188.77539062 0.08520508 C189.67092651 0.08901688 190.5664624 0.09282867 191.48913574 0.09675598 C193.65234375 0.23046875 193.65234375 0.23046875 195.65234375 1.23046875 C196.50390625 3.19140625 196.50390625 3.19140625 197.27734375 5.60546875 C197.53773438 6.39695312 197.798125 7.1884375 198.06640625 8.00390625 C198.65234375 10.23046875 198.65234375 10.23046875 198.65234375 13.23046875 C199.31234375 13.23046875 199.97234375 13.23046875 200.65234375 13.23046875 C200.80703125 11.68359375 200.80703125 11.68359375 200.96484375 10.10546875 C201.64362172 6.2796293 202.7639317 3.5967685 204.65234375 0.23046875 C206.44368353 0.17654882 208.23548274 0.13771304 210.02734375 0.10546875 C211.02507812 0.08226563 212.0228125 0.0590625 213.05078125 0.03515625 C215.65234375 0.23046875 215.65234375 0.23046875 217.65234375 2.23046875 C216.48779904 9.49605586 214.04080687 16.31164978 211.58984375 23.23046875 C211.22568359 24.27847656 210.86152344 25.32648437 210.48632812 26.40625 C207.78930835 34.09350415 207.78930835 34.09350415 206.65234375 35.23046875 C204.2992082 35.30318616 201.94400707 35.31417743 199.58984375 35.29296875 C198.29949219 35.28394531 197.00914062 35.27492187 195.6796875 35.265625 C194.68066406 35.25402344 193.68164062 35.24242187 192.65234375 35.23046875 C184.65234375 18.37940492 184.65234375 18.37940492 184.65234375 12.23046875 C182.55451588 14.32829662 182.00140415 15.61038945 181.02734375 18.35546875 C180.76695312 19.07992187 180.5065625 19.804375 180.23828125 20.55078125 C180.04492188 21.10507812 179.8515625 21.659375 179.65234375 22.23046875 C181.63234375 23.22046875 181.63234375 23.22046875 183.65234375 24.23046875 C183.67922526 25.87621441 183.69868498 27.52208288 183.71484375 29.16796875 C183.72644531 30.08449219 183.73804688 31.00101563 183.75 31.9453125 C183.65234375 34.23046875 183.65234375 34.23046875 182.65234375 35.23046875 C179.85244655 35.32566243 177.07728201 35.35600819 174.27709961 35.34399414 C172.96014854 35.34421318 172.96014854 35.34421318 171.61659241 35.34443665 C168.7000994 35.34373719 165.78366942 35.3359433 162.8671875 35.328125 C160.85079483 35.32626093 158.83440171 35.32483698 156.81800842 35.32383728 C151.49969237 35.32001119 146.18140345 35.31018014 140.86309814 35.2991333 C135.44063687 35.28892113 130.01817123 35.28434008 124.59570312 35.27929688 C113.94790472 35.26855795 103.30012649 35.25148044 92.65234375 35.23046875 C92.32234375 34.24046875 91.99234375 33.25046875 91.65234375 32.23046875 C90.99782227 32.71217529 90.34330078 33.19388184 89.66894531 33.69018555 C85.89804581 35.61561489 82.53318933 35.78778358 78.38671875 35.875 C77.59388489 35.89447189 76.80105103 35.91394379 75.98419189 35.93400574 C74.31008197 35.96663363 72.63578077 35.99048393 70.96142578 36.00610352 C68.42118744 36.04269729 65.88966249 36.1486053 63.3515625 36.25585938 C51.44501063 36.51877591 51.44501063 36.51877591 46.47460938 32.94677734 C44.24850372 30.4770552 42.3745445 28.06965989 40.65234375 25.23046875 C40.58523193 25.91117432 40.51812012 26.59187988 40.44897461 27.29321289 C39.77734375 34.10546875 39.77734375 34.10546875 38.65234375 35.23046875 C36.63270176 35.30290928 34.61067251 35.31424063 32.58984375 35.29296875 C30.93275391 35.27943359 30.93275391 35.27943359 29.2421875 35.265625 C28.38753906 35.25402344 27.53289063 35.24242187 26.65234375 35.23046875 C26.32234375 33.91046875 25.99234375 32.59046875 25.65234375 31.23046875 C24.90984375 31.86984375 24.16734375 32.50921875 23.40234375 33.16796875 C18.35134785 36.95621567 12.78040643 36.7497961 6.65234375 36.23046875 C1.55366202 35.0063996 -1.4624568 32.58669732 -4.34765625 28.23046875 C-4.83349609 25.30786133 -4.83349609 25.30786133 -4.80859375 22.125 C-4.80472656 20.97708984 -4.80085937 19.82917969 -4.796875 18.64648438 C-4.77238281 17.45732422 -4.74789063 16.26816406 -4.72265625 15.04296875 C-4.72136719 13.84220703 -4.72007813 12.64144531 -4.71875 11.40429688 C-4.60768786 0.45233541 -4.60768786 0.45233541 0 0 Z M91.65234375 13.23046875 C91.65234375 14.88046875 91.65234375 16.53046875 91.65234375 18.23046875 C91.98234375 18.23046875 92.31234375 18.23046875 92.65234375 18.23046875 C92.65234375 16.58046875 92.65234375 14.93046875 92.65234375 13.23046875 C92.32234375 13.23046875 91.99234375 13.23046875 91.65234375 13.23046875 Z M116.65234375 16.23046875 C115.99234375 18.54046875 115.33234375 20.85046875 114.65234375 23.23046875 C115.64234375 23.23046875 116.63234375 23.23046875 117.65234375 23.23046875 C117.65234375 20.92046875 117.65234375 18.61046875 117.65234375 16.23046875 C117.32234375 16.23046875 116.99234375 16.23046875 116.65234375 16.23046875 Z M74.65234375 23.23046875 C74.65234375 23.56046875 74.65234375 23.89046875 74.65234375 24.23046875 C76.30234375 24.23046875 77.95234375 24.23046875 79.65234375 24.23046875 C79.65234375 23.90046875 79.65234375 23.57046875 79.65234375 23.23046875 C78.00234375 23.23046875 76.35234375 23.23046875 74.65234375 23.23046875 Z " fill="#A5A5A5" transform="translate(14.34765625,20.76953125)"/>
<path d="M0 0 C3.39998727 1.13332909 3.66252304 1.53563161 5.25 4.5625 C7.41783493 9.10345725 7.03887473 12.15191793 6 17 C5.01 17 4.02 17 3 17 C3.33 19.97 3.66 22.94 4 26 C2.35 26.33 0.7 26.66 -1 27 C-2.13043478 22.47826087 -2.13043478 22.47826087 -1.4375 19.9375 C-0.68777859 17.5690465 -0.68777859 17.5690465 -3 14 C-3.99 18.455 -3.99 18.455 -5 23 C-5.99 23 -6.98 23 -8 23 C-8.185625 23.680625 -8.37125 24.36125 -8.5625 25.0625 C-10.29690144 28.60671165 -12.56083132 30.7045477 -15.44140625 33.3515625 C-17.24252961 35.02427051 -17.24252961 35.02427051 -18 38 C-16.70488185 39.97012849 -16.70488185 39.97012849 -14.8125 41.875 C-13.84763672 42.93074219 -13.84763672 42.93074219 -12.86328125 44.0078125 C-12.24839844 44.66523437 -11.63351562 45.32265625 -11 46 C-8.5 48.75 -8.5 48.75 -7 51 C-7.40625 53.140625 -7.40625 53.140625 -8 55 C-21.5470852 55.92017937 -21.5470852 55.92017937 -25.109375 53.6640625 C-26.4375 52 -26.4375 52 -28 49 C-28.804375 49.804375 -29.60875 50.60875 -30.4375 51.4375 C-34 55 -34 55 -37.2734375 55.09765625 C-38.64065892 55.09098036 -40.00786205 55.07901747 -41.375 55.0625 C-42.06078125 55.05798828 -42.7465625 55.05347656 -43.453125 55.04882812 C-45.3021121 55.03623775 -47.15106125 55.01836694 -49 55 C-51.84531353 54.87664351 -51.84531353 54.87664351 -53.91796875 55.48828125 C-59.97202747 56.9762394 -66.2383948 56.216002 -72 54 C-74.9375 51.875 -74.9375 51.875 -77 50 C-77 50.66 -77 51.32 -77 52 C-81.225184 55.45715975 -85.36504347 55.39606597 -90.58203125 55.29296875 C-91.39621017 55.28872391 -92.2103891 55.28447906 -93.04924011 55.28010559 C-95.63733668 55.26337753 -98.22464071 55.22573712 -100.8125 55.1875 C-102.57225434 55.17244553 -104.33202095 55.15875846 -106.09179688 55.14648438 C-110.39483437 55.11349336 -114.69728303 55.0617524 -119 55 C-119.33 53.68 -119.66 52.36 -120 51 C-121.918125 51.1546875 -121.918125 51.1546875 -123.875 51.3125 C-124.59429687 51.37050781 -125.31359375 51.42851563 -126.0546875 51.48828125 C-128.39519216 51.87393036 -128.39519216 51.87393036 -130 55 C-132.8203125 55.29296875 -132.8203125 55.29296875 -136.125 55.1875 C-137.76855469 55.14689453 -137.76855469 55.14689453 -139.4453125 55.10546875 C-140.70988281 55.05326172 -140.70988281 55.05326172 -142 55 C-143.37723128 50.45203347 -142.50767839 47.62450599 -140.9453125 43.203125 C-140.61380692 42.25176666 -140.61380692 42.25176666 -140.27560425 41.28118896 C-139.57005871 39.26659523 -138.84747163 37.25857703 -138.125 35.25 C-137.64608167 33.8844837 -137.16820562 32.51860137 -136.69140625 31.15234375 C-133.18252711 21.18252711 -133.18252711 21.18252711 -132 20 C-129.71187186 19.84784826 -127.41800872 19.77813508 -125.125 19.75 C-123.24167969 19.71132813 -123.24167969 19.71132813 -121.3203125 19.671875 C-118 20 -118 20 -116.39282227 21.25610352 C-114.82805523 23.21528511 -114.15542348 24.84633977 -113.39453125 27.23046875 C-113.00297852 28.43413086 -113.00297852 28.43413086 -112.60351562 29.66210938 C-112.34248047 30.49548828 -112.08144531 31.32886719 -111.8125 32.1875 C-111.53986328 33.03248047 -111.26722656 33.87746094 -110.98632812 34.74804688 C-110.3160113 36.829557 -109.65426485 38.91339988 -109 41 C-108.98018066 40.43490723 -108.96036133 39.86981445 -108.93994141 39.28759766 C-108.84481764 36.73292003 -108.73508942 34.17907459 -108.625 31.625 C-108.57859375 30.29082031 -108.57859375 30.29082031 -108.53125 28.9296875 C-108.49257813 28.07890625 -108.45390625 27.228125 -108.4140625 26.3515625 C-108.3826416 25.56604004 -108.3512207 24.78051758 -108.31884766 23.97119141 C-108 22 -108 22 -106 20 C-102.98033898 19.55028877 -99.92429515 19.67598453 -96.875 19.6875 C-96.04484375 19.67138672 -95.2146875 19.65527344 -94.359375 19.63867188 C-88.57588452 19.63413936 -84.24274656 20.50706817 -79 23 C-78.01 24.485 -78.01 24.485 -77 26 C-76.2575 25.38125 -75.515 24.7625 -74.75 24.125 C-70.01209603 20.46389239 -67.12122407 19.72413565 -61.0625 19.75 C-59.85722656 19.74484375 -58.65195312 19.7396875 -57.41015625 19.734375 C-54.15876275 19.9876336 -51.92033029 20.60356123 -49 22 C-48.34 21.34 -47.68 20.68 -47 20 C-44.3984375 19.8046875 -44.3984375 19.8046875 -41.375 19.875 C-40.37210937 19.89304687 -39.36921875 19.91109375 -38.3359375 19.9296875 C-37.56507813 19.95289062 -36.79421875 19.97609375 -36 20 C-35.71125 19.21625 -35.4225 18.4325 -35.125 17.625 C-34 15 -34 15 -32 13 C-31.65929591 10.72720185 -31.55858171 8.48577736 -31.44140625 6.19140625 C-30.90181757 3.51256335 -30.26530703 2.52224505 -28 1 C-25.8125 1.3125 -25.8125 1.3125 -24 2 C-23.64949536 7.841744 -23.83272665 11.8531808 -27 17 C-26.01 17 -25.02 17 -24 17 C-23.67 15.35 -23.34 13.7 -23 12 C-21.02 12 -19.04 12 -17 12 C-16.92652344 11.04287109 -16.92652344 11.04287109 -16.8515625 10.06640625 C-16.77679688 9.24011719 -16.70203125 8.41382813 -16.625 7.5625 C-16.55539062 6.73878906 -16.48578125 5.91507812 -16.4140625 5.06640625 C-16.27742188 4.38449219 -16.14078125 3.70257812 -16 3 C-13.23039695 1.61519847 -11.92986935 2.38125967 -9 3.25 C-7.6696875 3.62898437 -7.6696875 3.62898437 -6.3125 4.015625 C-3.30025014 5.29786649 -2.42996631 7.14006738 -1 10 C-0.01 9.67 0.98 9.34 2 9 C1.67 8.2575 1.34 7.515 1 6.75 C0 4 0 4 0 0 Z M-14 10 C-14.99 13.3 -15.98 16.6 -17 20 C-15.68 20 -14.36 20 -13 20 C-12.67 18.68 -12.34 17.36 -12 16 C-10.35 16 -8.7 16 -7 16 C-7.33 14.35 -7.66 12.7 -8 11 C-10.97 10.505 -10.97 10.505 -14 10 Z M-45 29 C-44 31 -44 31 -44 31 Z M-44 31 C-44 35.29 -44 39.58 -44 44 C-39.05113093 40.75468056 -39.05113093 40.75468056 -38.1875 37.75 C-38.125625 37.1725 -38.06375 36.595 -38 36 C-39.98 34.35 -41.96 32.7 -44 31 Z M-63 32 C-63 35.63 -63 39.26 -63 43 C-61.35 43 -59.7 43 -58 43 C-58 39.37 -58 35.74 -58 32 C-59.65 32 -61.3 32 -63 32 Z M-94 43 C-90 44 -90 44 -90 44 Z " fill="#A6A6A6" transform="translate(367,1)"/>
<path d="M0 0 C3.39998727 1.13332909 3.66252304 1.53563161 5.25 4.5625 C7.41783493 9.10345725 7.03887473 12.15191793 6 17 C5.01 17 4.02 17 3 17 C3.495 21.455 3.495 21.455 4 26 C2.35 26.33 0.7 26.66 -1 27 C-2.13043478 22.47826087 -2.13043478 22.47826087 -1.4375 19.9375 C-0.68777859 17.5690465 -0.68777859 17.5690465 -3 14 C-3.66 16.97 -4.32 19.94 -5 23 C-5.99 23 -6.98 23 -8 23 C-8.2784375 24.0209375 -8.2784375 24.0209375 -8.5625 25.0625 C-10.29690144 28.60671165 -12.56083132 30.7045477 -15.44140625 33.3515625 C-17.24252961 35.02427051 -17.24252961 35.02427051 -18 38 C-16.70488185 39.97012849 -16.70488185 39.97012849 -14.8125 41.875 C-13.84763672 42.93074219 -13.84763672 42.93074219 -12.86328125 44.0078125 C-12.24839844 44.66523437 -11.63351562 45.32265625 -11 46 C-8.5 48.75 -8.5 48.75 -7 51 C-7.25 53.3125 -7.25 53.3125 -8 55 C-11.65829164 51.45256568 -15.02911477 47.73084843 -18.3515625 43.8671875 C-19.93801282 41.97768705 -19.93801282 41.97768705 -21.7734375 40.5078125 C-23 39 -23 39 -22.96875 37.1328125 C-21.63205433 34.18992607 -19.71337786 32.2214607 -17.5 29.875 C-14.38621216 26.69217817 -14.38621216 26.69217817 -12 23 C-16.35935308 22.84183753 -19.74506471 22.92466596 -23.15625 25.84765625 C-24.87224598 27.84144666 -26.47970352 29.85398663 -28 32 C-31.12613393 29.03839944 -33.04783565 26.90432869 -35 23 C-38.3 23 -41.6 23 -45 23 C-43.02 25.64 -41.04 28.28 -39 31 C-39.33 31.66 -39.66 32.32 -40 33 C-40.99 32.67 -41.98 32.34 -43 32 C-43.04898437 32.98742188 -43.09796875 33.97484375 -43.1484375 34.9921875 C-43.26058594 36.91417969 -43.26058594 36.91417969 -43.375 38.875 C-43.44460938 40.15117188 -43.51421875 41.42734375 -43.5859375 42.7421875 C-44 46 -44 46 -46 48 C-46 41.73 -46 35.46 -46 29 C-46.66 29 -47.32 29 -48 29 C-48.625 26.1875 -48.625 26.1875 -49 23 C-48.01 21.515 -48.01 21.515 -47 20 C-44.3984375 19.70703125 -44.3984375 19.70703125 -41.375 19.8125 C-39.87066406 19.85310547 -39.87066406 19.85310547 -38.3359375 19.89453125 C-37.56507813 19.92933594 -36.79421875 19.96414062 -36 20 C-35.71125 19.21625 -35.4225 18.4325 -35.125 17.625 C-34 15 -34 15 -32 13 C-31.65929591 10.72720185 -31.55858171 8.48577736 -31.44140625 6.19140625 C-30.90181757 3.51256335 -30.26530703 2.52224505 -28 1 C-25.8125 1.3125 -25.8125 1.3125 -24 2 C-23.64949536 7.841744 -23.83272665 11.8531808 -27 17 C-26.01 17 -25.02 17 -24 17 C-23.67 15.35 -23.34 13.7 -23 12 C-21.02 12 -19.04 12 -17 12 C-16.95101562 11.36191406 -16.90203125 10.72382813 -16.8515625 10.06640625 C-16.77679688 9.24011719 -16.70203125 8.41382813 -16.625 7.5625 C-16.55539062 6.73878906 -16.48578125 5.91507812 -16.4140625 5.06640625 C-16.27742188 4.38449219 -16.14078125 3.70257812 -16 3 C-13.23039695 1.61519847 -11.92986935 2.38125967 -9 3.25 C-8.113125 3.50265625 -7.22625 3.7553125 -6.3125 4.015625 C-3.30025014 5.29786649 -2.42996631 7.14006738 -1 10 C-0.01 9.67 0.98 9.34 2 9 C1.505 7.88625 1.505 7.88625 1 6.75 C0 4 0 4 0 0 Z M-14 10 C-14.99 13.3 -15.98 16.6 -17 20 C-15.68 20 -14.36 20 -13 20 C-12.67 18.68 -12.34 17.36 -12 16 C-10.35 16 -8.7 16 -7 16 C-7.33 14.35 -7.66 12.7 -8 11 C-10.97 10.505 -10.97 10.505 -14 10 Z M-45 29 C-44 31 -44 31 -44 31 Z " fill="#A0A0A0" transform="translate(367,1)"/>
<path d="M0 0 C4.764375 -0.1546875 4.764375 -0.1546875 9.625 -0.3125 C11.1092749 -0.38078003 11.1092749 -0.38078003 12.62353516 -0.45043945 C16.97765551 -0.51865136 20.1180495 -0.4386344 23.6484375 2.2890625 C26 5 26 5 26 8.6875 C25 12 25 12 23 14 C23.66 14.33 24.32 14.66 25 15 C27.29851498 17.29851498 27.3398291 17.87453127 27.4375 21 C27.29930468 23.51515477 27.17222499 24.7280658 25.8125 26.875 C20.31609968 30.28655882 15.47363776 30.24593872 9.1875 30.125 C6.155625 30.08375 3.12375 30.0425 0 30 C0 20.1 0 10.2 0 0 Z M11 20 C11 20.33 11 20.66 11 21 C12.65 21 14.3 21 16 21 C16 20.67 16 20.34 16 20 C14.35 20 12.7 20 11 20 Z " fill="#F8F8F8" transform="translate(78,24)"/>
<path d="M0 0 C2.84625 -0.061875 5.6925 -0.12375 8.625 -0.1875 C9.51010254 -0.21481201 10.39520508 -0.24212402 11.30712891 -0.27026367 C16.30666503 -0.32258832 19.64409262 0.272405 24 3 C25 4 25 4 25.1875 7.375 C25 11 25 11 23 14 C23.66 14.350625 24.32 14.70125 25 15.0625 C27 17 27 17 27.4375 20.4375 C26.99046406 24.07764984 26.60290079 25.49350295 24 28 C21.05868109 28.98043964 19.17498335 29.11621202 16.11328125 29.09765625 C15.26805908 29.09515869 14.42283691 29.09266113 13.55200195 29.09008789 C12.48296631 29.08098389 11.41393066 29.07187988 10.3125 29.0625 C5.2078125 29.0315625 5.2078125 29.0315625 0 29 C0 19.43 0 9.86 0 0 Z M11 20 C15 21 15 21 15 21 Z " fill="#F8F8F8" transform="translate(262,24)"/>
<path d="M0 0 C1.18722656 0.0103125 2.37445313 0.020625 3.59765625 0.03125 C7.1397903 0.52839162 9.09283087 1.37041284 11.9375 3.5 C13.75697279 7.13894558 13.25067595 11.36767734 13.3125 15.375 C13.34988281 16.28636719 13.38726562 17.19773437 13.42578125 18.13671875 C13.51465807 24.88148207 13.51465807 24.88148207 10.5390625 28.0703125 C5.13496167 31.04013368 -0.14171347 31.53554471 -6.20703125 29.93359375 C-9.59561665 28.57102573 -11.00512324 27.58606514 -13.0625 24.5 C-13.56196755 21.39194965 -13.52473489 18.26894533 -13.5625 15.125 C-13.60375 14.27421875 -13.645 13.4234375 -13.6875 12.546875 C-13.76212542 6.55818534 -13.76212542 6.55818534 -11.93969727 3.80175781 C-8.24629261 0.34745025 -4.8863802 -0.12760949 0 0 Z M-2.0625 9.5 C-2.0625 13.13 -2.0625 16.76 -2.0625 20.5 C-0.4125 20.5 1.2375 20.5 2.9375 20.5 C2.9375 16.87 2.9375 13.24 2.9375 9.5 C1.2875 9.5 -0.3625 9.5 -2.0625 9.5 Z " fill="#FAFAFA" transform="translate(306.0625,23.5)"/>
<path d="M0 0 C8 0 8 0 10.06982422 1.3293457 C10.5598291 1.93866943 11.04983398 2.54799316 11.5546875 3.17578125 C12.10640625 3.83900391 12.658125 4.50222656 13.2265625 5.18554688 C13.77054688 5.88744141 14.31453125 6.58933594 14.875 7.3125 C15.4421875 8.00279297 16.009375 8.69308594 16.59375 9.40429688 C18.87364824 12.20014365 20.99740692 14.99611039 23 18 C23.33 12.39 23.66 6.78 24 1 C26.31 1 28.62 1 31 1 C31 10.24 31 19.48 31 29 C22 29 22 29 19.29296875 26.76953125 C18.59816406 25.79371094 17.90335938 24.81789063 17.1875 23.8125 C16.47980469 22.84957031 15.77210937 21.88664062 15.04296875 20.89453125 C14.36878906 19.93933594 13.69460937 18.98414062 13 18 C11.68 16.35 10.36 14.7 9 13 C8.67 18.61 8.34 24.22 8 30 C5.36 30 2.72 30 0 30 C0 20.1 0 10.2 0 0 Z " fill="#F9F9F9" transform="translate(43,24)"/>
<path d="M0 0 C1.51400391 0.01740234 1.51400391 0.01740234 3.05859375 0.03515625 C4.07050781 0.04417969 5.08242187 0.05320312 6.125 0.0625 C7.29869141 0.07990234 7.29869141 0.07990234 8.49609375 0.09765625 C10.79608283 6.02920702 12.82624857 12.02816767 14.78198242 18.08032227 C15.66877931 21.34902748 15.66877931 21.34902748 17.49609375 24.09765625 C17.53673207 25.7638274 17.53881475 27.4315372 17.49609375 29.09765625 C15.18609375 29.09765625 12.87609375 29.09765625 10.49609375 29.09765625 C10.16609375 27.77765625 9.83609375 26.45765625 9.49609375 25.09765625 C5.20609375 25.09765625 0.91609375 25.09765625 -3.50390625 25.09765625 C-3.83390625 26.41765625 -4.16390625 27.73765625 -4.50390625 29.09765625 C-6.81390625 29.09765625 -9.12390625 29.09765625 -11.50390625 29.09765625 C-10.15434863 22.63021106 -8.45770419 16.38693596 -6.44140625 10.09765625 C-6.17263672 9.24042969 -5.90386719 8.38320313 -5.62695312 7.5 C-3.28453546 0.12810201 -3.28453546 0.12810201 0 0 Z " fill="#FBFBFB" transform="translate(239.50390625,23.90234375)"/>
<path d="M0 0 C3.45394199 -0.49147001 6.56617883 -0.69494 10 0 C12.6162447 2.33009294 14.32081081 4.9419644 16 8 C16.763125 7.236875 17.52625 6.47375 18.3125 5.6875 C19.199375 4.800625 20.08625 3.91375 21 3 C21.45375 2.4534375 21.9075 1.906875 22.375 1.34375 C24.55717601 -0.4607417 25.8980243 -0.30878155 28.6875 -0.1875 C29.89986328 -0.14689453 29.89986328 -0.14689453 31.13671875 -0.10546875 C31.75160156 -0.07066406 32.36648438 -0.03585938 33 0 C31.09549299 4.43377294 27.91536336 7.37202767 24.58203125 10.78125 C22.79995694 12.82149995 22.79995694 12.82149995 23.015625 15.03125 C24.27746499 17.55492998 25.86930415 19.08514236 27.9375 21 C30.6491628 23.51973023 32.54109088 25.57805611 34 29 C25.43333244 30.0666009 25.43333244 30.0666009 22 27.51171875 C18 22.86748798 18 22.86748798 18 20 C17.2575 20.7425 16.515 21.485 15.75 22.25 C14.8425 23.1575 13.935 24.065 13 25 C12.4225 25.763125 11.845 26.52625 11.25 27.3125 C7.76468064 29.92648952 4.21048402 29.32388339 0 29 C1.90450701 24.56622706 5.08463664 21.62797233 8.41796875 18.21875 C10.18432595 16.18801181 10.18432595 16.18801181 10.0234375 14.0390625 C8.592472 11.18805491 6.63523335 9.17935265 4.4375 6.875 C0 2.20904836 0 2.20904836 0 0 Z " fill="#F9F9F9" transform="translate(322,24)"/>
<path d="M0 0 C6.93 0 13.86 0 21 0 C21 2.31 21 4.62 21 7 C16.71 7 12.42 7 8 7 C8 8.32 8 9.64 8 11 C11.63 11 15.26 11 19 11 C18.34 13.31 17.68 15.62 17 18 C14.03 18 11.06 18 8 18 C8 19.65 8 21.3 8 23 C12.29 23 16.58 23 21 23 C21 25.31 21 27.62 21 30 C14.07 30 7.14 30 0 30 C0 20.1 0 10.2 0 0 Z " fill="#F6F6F6" transform="translate(174,24)"/>
<path d="M0 0 C2.31 0 4.62 0 7 0 C7.11618764 3.91641711 7.18724654 7.83239101 7.25 11.75 C7.28351562 12.86117187 7.31703125 13.97234375 7.3515625 15.1171875 C7.36445312 16.18710937 7.37734375 17.25703125 7.390625 18.359375 C7.41157227 19.34389648 7.43251953 20.32841797 7.45410156 21.34277344 C6.87381016 24.73841408 5.63104908 25.85460834 3 28 C-1.6903265 30.60573694 -6.88692789 30.88771197 -12 29.4296875 C-15.44666061 28.06538434 -16.91067947 27.13398079 -19 24 C-19.22705078 21.5480957 -19.22705078 21.5480957 -19.1953125 18.67578125 C-19.18886719 17.64775391 -19.18242187 16.61972656 -19.17578125 15.56054688 C-19.15064453 13.95276367 -19.15064453 13.95276367 -19.125 12.3125 C-19.11597656 11.22904297 -19.10695313 10.14558594 -19.09765625 9.02929688 C-19.0740734 6.3526429 -19.04116126 3.67643203 -19 1 C-16.69 1 -14.38 1 -12 1 C-11.97494385 1.60062256 -11.9498877 2.20124512 -11.92407227 2.82006836 C-11.8084472 5.52611437 -11.68557064 8.23178283 -11.5625 10.9375 C-11.52318359 11.88302734 -11.48386719 12.82855469 -11.44335938 13.80273438 C-11.40146484 14.70185547 -11.35957031 15.60097656 -11.31640625 16.52734375 C-11.27974854 17.35999756 -11.24309082 18.19265137 -11.20532227 19.05053711 C-11.20632897 21.00338858 -11.20632897 21.00338858 -10 22 C-6.7 22 -3.4 22 0 22 C0 14.74 0 7.48 0 0 Z " fill="#FBFBFB" transform="translate(32,24)"/>
<path d="M0 0 C3.15234375 -0.3984375 3.15234375 -0.3984375 6.9375 -0.375 C8.18402344 -0.38273437 9.43054688 -0.39046875 10.71484375 -0.3984375 C14.31875423 0.03865985 14.82974909 0.29383309 17 3 C17.89135742 4.99291992 17.89135742 4.99291992 18.60546875 7.23046875 C18.86650391 8.03291016 19.12753906 8.83535156 19.39648438 9.66210938 C19.78803711 10.91217773 19.78803711 10.91217773 20.1875 12.1875 C20.46013672 13.03248047 20.73277344 13.87746094 21.01367188 14.74804688 C21.6839887 16.829557 22.34573515 18.91339988 23 21 C23.01981934 20.43490723 23.03963867 19.86981445 23.06005859 19.28759766 C23.15518236 16.73292003 23.26491058 14.17907459 23.375 11.625 C23.4059375 10.73554688 23.436875 9.84609375 23.46875 8.9296875 C23.50742187 8.07890625 23.54609375 7.228125 23.5859375 6.3515625 C23.6173584 5.56604004 23.6487793 4.78051758 23.68115234 3.97119141 C24 2 24 2 26 0 C29.01966102 -0.44971123 32.07570485 -0.32401547 35.125 -0.3125 C35.95515625 -0.32861328 36.7853125 -0.34472656 37.640625 -0.36132812 C43.42411548 -0.36586064 47.75725344 0.50706817 53 3 C53.66 3.99 54.32 4.98 55 6 C55.7425 5.38125 56.485 4.7625 57.25 4.125 C61.98790397 0.46389239 64.87877593 -0.27586435 70.9375 -0.25 C72.14277344 -0.25515625 73.34804688 -0.2603125 74.58984375 -0.265625 C77.88402942 -0.00903322 80.12329319 0.39117508 83 2 C83.8125 5.125 83.8125 5.125 84 8 C83.505 7.01 83.505 7.01 83 6 C77.05706236 2.93584316 70.50033416 3.28450654 64 4 C60.68420334 5.20680938 60.15930684 5.97697043 58 9 C57.26864821 12.01619565 57.01350209 14.90127089 57 18 C56.01 18 55.02 18 54 18 C53.90203125 17.31292969 53.8040625 16.62585938 53.703125 15.91796875 C53.55359375 15.01691406 53.4040625 14.11585937 53.25 13.1875 C53.11078125 12.29417969 52.9715625 11.40085937 52.828125 10.48046875 C51.81334951 7.44092897 50.72917071 6.60212429 48 5 C45.23434618 4.07811539 43.61716298 3.88214778 40.76953125 3.90234375 C40.04612549 3.90484131 39.32271973 3.90733887 38.57739258 3.90991211 C37.20877075 3.92356812 37.20877075 3.92356812 35.8125 3.9375 C32.904375 3.958125 29.99625 3.97875 27 4 C26.67 12.25 26.34 20.5 26 29 C24.68 29.33 23.36 29.66 22 30 C18.70498926 21.40524706 15.49443068 12.86908687 13 4 C9.37 4 5.74 4 2 4 C1.5875 5.27875 1.175 6.5575 0.75 7.875 C-0.15801225 10.68983799 -0.52817447 11.71865219 -3.109375 13.2578125 C-3.73328125 13.50273438 -4.3571875 13.74765625 -5 14 C-4.54857225 12.22739369 -4.08859477 10.4569632 -3.625 8.6875 C-3.36976563 7.70136719 -3.11453125 6.71523438 -2.8515625 5.69921875 C-2 3 -2 3 0 0 Z " fill="#9D9D9D" transform="translate(235,21)"/>
<path d="M0 0 C2.64 0 5.28 0 8 0 C10.70071112 6.27980887 12.70024676 12.28460827 14 19 C14.66 19 15.32 19 16 19 C16.2475 17.72125 16.495 16.4425 16.75 15.125 C17.91164561 9.830253 19.86340266 4.96810741 22 0 C24.64 0 27.28 0 30 0 C28.3008008 7.01783084 26.08063479 13.56041962 23.18359375 20.17578125 C21.96736398 23.07787407 20.96014872 26.00451297 20 29 C16.7 29 13.4 29 10 29 C7.10806496 22.99367337 4.8582296 16.8771794 2.75 10.5625 C2.47978027 9.75699707 2.20956055 8.95149414 1.93115234 8.12158203 C0 2.25857868 0 2.25857868 0 0 Z " fill="#F8F8F8" transform="translate(199,24)"/>
<path d="M0 0 C6.6 0 13.2 0 20 0 C20 1.98 20 3.96 20 6 C15.71 6 11.42 6 7 6 C7 7.32 7 8.64 7 10 C10.63 10 14.26 10 18 10 C17 15 17 15 16 17 C13.03 17 10.06 17 7 17 C7 18.65 7 20.3 7 22 C11.29 22 15.58 22 20 22 C20 23.98 20 25.96 20 28 C13.4 28 6.8 28 0 28 C0 18.76 0 9.52 0 0 Z " fill="#FDFDFD" transform="translate(110,25)"/>
<path d="M0 0 C3.39998727 1.13332909 3.66252304 1.53563161 5.25 4.5625 C7.41783493 9.10345725 7.03887473 12.15191793 6 17 C5.01 17 4.02 17 3 17 C3.33 19.97 3.66 22.94 4 26 C2.35 26.33 0.7 26.66 -1 27 C-2.13043478 22.47826087 -2.13043478 22.47826087 -1.4375 19.9375 C-0.68777859 17.5690465 -0.68777859 17.5690465 -3 14 C-3.66 16.97 -4.32 19.94 -5 23 C-5.99 23 -6.98 23 -8 23 C-8.33 23.66 -8.66 24.32 -9 25 C-9 24.01 -9 23.02 -9 22 C-10.32 21.67 -11.64 21.34 -13 21 C-13 19.35 -13 17.7 -13 16 C-11.35 15.67 -9.7 15.34 -8 15 C-8 14.01 -8 13.02 -8 12 C-9.98 11.34 -11.96 10.68 -14 10 C-14.12375 11.27875 -14.2475 12.5575 -14.375 13.875 C-14.75 17.75 -14.75 17.75 -17 20 C-20.29714793 19.67028521 -21.6226839 19.3773161 -24 17 C-23.625 14.375 -23.625 14.375 -23 12 C-21.02 12 -19.04 12 -17 12 C-16.95101563 11.36191406 -16.90203125 10.72382813 -16.8515625 10.06640625 C-16.77679688 9.24011719 -16.70203125 8.41382813 -16.625 7.5625 C-16.55539062 6.73878906 -16.48578125 5.91507812 -16.4140625 5.06640625 C-16.20910156 4.04353516 -16.20910156 4.04353516 -16 3 C-13.23039695 1.61519847 -11.92986935 2.38125967 -9 3.25 C-8.113125 3.50265625 -7.22625 3.7553125 -6.3125 4.015625 C-3.30025014 5.29786649 -2.42996631 7.14006738 -1 10 C-0.01 9.67 0.98 9.34 2 9 C1.67 8.2575 1.34 7.515 1 6.75 C0 4 0 4 0 0 Z " fill="#7F7F7F" transform="translate(367,1)"/>
<path d="M0 0 C2.31 0 4.62 0 7 0 C7 7.26 7 14.52 7 22 C11.95 22 16.9 22 22 22 C22 23.98 22 25.96 22 28 C14.74 28 7.48 28 0 28 C0 18.76 0 9.52 0 0 Z " fill="#FEFEFE" transform="translate(135,25)"/>
<path d="M0 0 C3.96 0 7.92 0 12 0 C12 9.57 12 19.14 12 29 C9.69 29 7.38 29 5 29 C5 21.74 5 14.48 5 7 C3.35 7 1.7 7 0 7 C0 4.69 0 2.38 0 0 Z " fill="#FAFAFA" transform="translate(158,24)"/>
<path d="M0 0 C0.598125 0.226875 1.19625 0.45375 1.8125 0.6875 C2.16300464 6.529244 1.97977335 10.5406808 -1.1875 15.6875 C1.2875 16.6775 1.2875 16.6775 3.8125 17.6875 C3.5 19.625 3.5 19.625 2.8125 21.6875 C1.8225 22.0175 0.8325 22.3475 -0.1875 22.6875 C-0.92073796 24.70258358 -0.92073796 24.70258358 -1.1875 26.6875 C-5.42404125 25.27531958 -8.14821134 22.64380807 -10.25 18.6875 C-10.1875 16.6875 -10.1875 16.6875 -8.3125 14.5 C-5.73986566 11.09504278 -5.67922427 8.93164234 -5.55859375 4.7734375 C-5.1875 2.6875 -5.1875 2.6875 -3.91015625 0.8515625 C-2.1875 -0.3125 -2.1875 -0.3125 0 0 Z " fill="#7F7F7F" transform="translate(341.1875,2.3125)"/>
<path d="M0 0 C4.32868147 -0.84876107 9.04800025 -1.01745161 13.0234375 1.0546875 C15.15084149 2.80849859 16.76279523 4.52559046 18 7 C19.32 6.67 20.64 6.34 22 6 C21.6875 7.875 21.6875 7.875 21 10 C20.01 10.66 19.02 11.32 18 12 C16.99406757 10.8803014 15.9954151 9.7540588 15 8.625 C14.443125 7.99851562 13.88625 7.37203125 13.3125 6.7265625 C12 5 12 5 12 3 C8.7 3 5.4 3 2 3 C3.98 5.64 5.96 8.28 8 11 C7.67 11.66 7.34 12.32 7 13 C6.01 12.67 5.02 12.34 4 12 C3.95101563 12.98742188 3.90203125 13.97484375 3.8515625 14.9921875 C3.73941406 16.91417969 3.73941406 16.91417969 3.625 18.875 C3.55539062 20.15117188 3.48578125 21.42734375 3.4140625 22.7421875 C3 26 3 26 1 28 C1 21.73 1 15.46 1 9 C0.34 9 -0.32 9 -1 9 C-1.625 6.1875 -1.625 6.1875 -2 3 C-1.34 2.01 -0.68 1.02 0 0 Z M2 9 C3 11 3 11 3 11 Z " fill="#8F8F8F" transform="translate(320,21)"/>
<path d="M0 0 C0.70125 0.01417969 1.4025 0.02835938 2.125 0.04296875 C3.176875 0.05263672 3.176875 0.05263672 4.25 0.0625 C6.125 0.23046875 6.125 0.23046875 8.125 1.23046875 C8.15185095 3.70970676 8.17176547 6.18865715 8.1875 8.66796875 C8.19587891 9.37501953 8.20425781 10.08207031 8.21289062 10.81054688 C8.22153588 12.61740434 8.17720011 14.42434478 8.125 16.23046875 C7.125 17.23046875 7.125 17.23046875 4.875 17.36328125 C3.9675 17.36070313 3.06 17.358125 2.125 17.35546875 C0.76375 17.35933594 0.76375 17.35933594 -0.625 17.36328125 C-2.875 17.23046875 -2.875 17.23046875 -3.875 16.23046875 C-4.00057162 13.92053493 -4.05075729 11.60628339 -4.0625 9.29296875 C-4.07667969 8.02582031 -4.09085937 6.75867187 -4.10546875 5.453125 C-3.86336116 2.06772232 -3.61718332 0.44461212 0 0 Z M0.125 3.23046875 C0.125 6.86046875 0.125 10.49046875 0.125 14.23046875 C1.775 14.23046875 3.425 14.23046875 5.125 14.23046875 C5.125 10.60046875 5.125 6.97046875 5.125 3.23046875 C3.475 3.23046875 1.825 3.23046875 0.125 3.23046875 Z " fill="#8B8B8B" transform="translate(303.875,29.76953125)"/>
<path d="M0 0 C0.33 0 0.66 0 1 0 C1 7.26 1 14.52 1 22 C5.62 22 10.24 22 15 22 C15.33 18.37 15.66 14.74 16 11 C16.33 11 16.66 11 17 11 C17.33 17.93 17.66 24.86 18 32 C16.515 32.495 16.515 32.495 15 33 C14.34 30.36 13.68 27.72 13 25 C6.07 24.505 6.07 24.505 -1 24 C-0.67 16.08 -0.34 8.16 0 0 Z " fill="#9A9A9A" transform="translate(144,22)"/>
<path d="M0 0 C0.69996094 0.38671875 1.39992188 0.7734375 2.12109375 1.171875 C2.93359375 4.296875 2.93359375 4.296875 3.12109375 7.171875 C2.79109375 6.511875 2.46109375 5.851875 2.12109375 5.171875 C-3.7935123 2.11147334 -10.40173533 2.51884253 -16.87890625 3.171875 C-19.43851508 4.22880504 -20.78550124 5.31107055 -22.87890625 7.171875 C-23.53890625 7.171875 -24.19890625 7.171875 -24.87890625 7.171875 C-24.81640625 5.421875 -24.81640625 5.421875 -23.87890625 3.171875 C-17.28686219 -2.34704561 -8.06037911 -2.31858938 0 0 Z " fill="#A4A4A4" transform="translate(315.87890625,21.828125)"/>
<path d="M0 0 C1.62463842 -0.05395478 3.24978541 -0.09277195 4.875 -0.125 C5.77992187 -0.14820313 6.68484375 -0.17140625 7.6171875 -0.1953125 C10 0 10 0 12 2 C11.46428571 5.53571429 11.46428571 5.53571429 10 7 C8.31391034 7.07205511 6.62499341 7.08386068 4.9375 7.0625 C4.01839844 7.05347656 3.09929687 7.04445313 2.15234375 7.03515625 C1.44207031 7.02355469 0.73179688 7.01195312 0 7 C0 4.69 0 2.38 0 0 Z M3 3 C3 3.33 3 3.66 3 4 C4.65 4 6.3 4 8 4 C8 3.67 8 3.34 8 3 C6.35 3 4.7 3 3 3 Z " fill="#AEAEAE" transform="translate(86,41)"/>
<path d="M0 0 C0.66 0 1.32 0 2 0 C2.08378906 0.73992188 2.16757812 1.47984375 2.25390625 2.2421875 C3.15570409 5.57553448 4.41998076 6.80323723 6.9375 9.125 C9.36150932 11.38623556 11.14627924 13.21941886 13 16 C12.625 18.1875 12.625 18.1875 12 20 C8.30931405 16.42115302 4.90801605 12.66273258 1.55078125 8.76953125 C0.41306678 7.47133312 -0.7794033 6.2205967 -2 5 C-1.46428571 1.46428571 -1.46428571 1.46428571 0 0 Z " fill="#9D9D9D" transform="translate(347,36)"/>
<path d="M0 0 C0.70125 0.01417969 1.4025 0.02835938 2.125 0.04296875 C3.176875 0.05263672 3.176875 0.05263672 4.25 0.0625 C6.125 0.23046875 6.125 0.23046875 8.125 1.23046875 C8.125 6.18046875 8.125 11.13046875 8.125 16.23046875 C7.795 16.23046875 7.465 16.23046875 7.125 16.23046875 C6.795 12.27046875 6.465 8.31046875 6.125 4.23046875 C3.155 3.90046875 0.185 3.57046875 -2.875 3.23046875 C-2.875 7.52046875 -2.875 11.81046875 -2.875 16.23046875 C-3.205 16.23046875 -3.535 16.23046875 -3.875 16.23046875 C-3.92884521 13.93905589 -3.96772087 11.64728687 -4 9.35546875 C-4.02320313 8.07929687 -4.04640625 6.803125 -4.0703125 5.48828125 C-3.86586256 2.07805621 -3.64506758 0.44803956 0 0 Z " fill="#B1B1B1" transform="translate(303.875,29.76953125)"/>
<path d="M0 0 C2.97 0 5.94 0 9 0 C9.38218767 1.65614657 9.71395102 3.32457024 10 5 C9 6 9 6 6.93359375 6.09765625 C6.10988281 6.08605469 5.28617187 6.07445312 4.4375 6.0625 C3.61121094 6.05347656 2.78492187 6.04445313 1.93359375 6.03515625 C1.29550781 6.02355469 0.65742187 6.01195312 0 6 C0 4.02 0 2.04 0 0 Z " fill="#AEAEAE" transform="translate(86,30)"/>
<path d="M0 0 C0.66 0.99 1.32 1.98 2 3 C1.67 3.5775 1.34 4.155 1 4.75 C-0.27075898 7.19883862 -0.27075898 7.19883862 0 11 C-4.62 11 -9.24 11 -14 11 C-13.67 9.35 -13.34 7.7 -13 6 C-12.67 6.66 -12.34 7.32 -12 8 C-8.7 8 -5.4 8 -2 8 C-1.7834375 6.576875 -1.7834375 6.576875 -1.5625 5.125 C-1 2 -1 2 0 0 Z " fill="#ABABAB" transform="translate(221,45)"/>
<path d="M0 0 C0.66 0.66 1.32 1.32 2 2 C0.44470774 5.0332068 -1.15060267 7.09562892 -4 9 C-9.06818175 9.63021278 -13.92042212 9.40714174 -19 9 C-18.34 8.67 -17.68 8.34 -17 8 C-16.67 7.34 -16.34 6.68 -16 6 C-12.7 6.33 -9.4 6.66 -6 7 C-5.34 5.68 -4.68 4.36 -4 3 C-1.875 1.25 -1.875 1.25 0 0 Z " fill="#9D9D9D" transform="translate(337,47)"/>
<path d="M0 0 C3.63 0 7.26 0 11 0 C11 1.65 11 3.3 11 5 C7.37 5 3.74 5 0 5 C0 3.35 0 1.7 0 0 Z M3 2 C7 3 7 3 7 3 Z " fill="#A1A1A1" transform="translate(270,42)"/>
<path d="M0 0 C2.97 0 5.94 0 9 0 C9.33 1.65 9.66 3.3 10 5 C6.7 5 3.4 5 0 5 C0 3.35 0 1.7 0 0 Z " fill="#A9A9A9" transform="translate(270,30)"/>
<path d="M0 0 C2.3129482 2.3129482 2.49580975 3.47904875 3.125 6.625 C3.29257813 7.44226562 3.46015625 8.25953125 3.6328125 9.1015625 C3.81457031 10.04128906 3.81457031 10.04128906 4 11 C1.69 11 -0.62 11 -3 11 C-2.69078116 9.54096742 -2.37751201 8.08279278 -2.0625 6.625 C-1.88847656 5.81289063 -1.71445313 5.00078125 -1.53515625 4.1640625 C-1 2 -1 2 0 0 Z " fill="#ADADAD" transform="translate(242,31)"/>
<path d="M0 0 C0.66 0.99 1.32 1.98 2 3 C1.67 3.66 1.34 4.32 1 5 C0.77095376 6.96325349 0.54252131 8.92658587 0.3203125 10.890625 C-0.11010714 13.7250958 -0.99570216 16.32187242 -2 19 C-3.125 17.25 -3.125 17.25 -4 15 C-3.37224433 13.64791086 -2.69580267 12.31836295 -2 11 C-1.7703778 9.65233637 -1.58656052 8.29643509 -1.4375 6.9375 C-1 3 -1 3 0 0 Z " fill="#A0A0A0" transform="translate(224,36)"/>
<path d="M0 0 C2.00993705 3.01490557 2.72623341 5.2149927 3.625 8.6875 C3.88539063 9.68136719 4.14578125 10.67523438 4.4140625 11.69921875 C4.60742188 12.45847656 4.80078125 13.21773437 5 14 C4.01 14.33 3.02 14.66 2 15 C-0.10428384 9.87080814 -0.21755666 5.4389165 0 0 Z " fill="#969696" transform="translate(209,22)"/>
<path d="M0 0 C0.33 0.66 0.66 1.32 1 2 C1.99 1.67 2.98 1.34 4 1 C3.67 4.63 3.34 8.26 3 12 C2.01 12 1.02 12 0 12 C0 8.04 0 4.08 0 0 Z " fill="#959595" transform="translate(289,27)"/>
<path d="M0 0 C5.57142857 5.14285714 5.57142857 5.14285714 6 9 C5.01 9.495 5.01 9.495 4 10 C3.67 9.01 3.34 8.02 3 7 C2.01 6.34 1.02 5.68 0 5 C-0.1875 2.375 -0.1875 2.375 0 0 Z " fill="#909090" transform="translate(354,46)"/>
<path d="M0 0 C0.66 0 1.32 0 2 0 C1.34 2.64 0.68 5.28 0 8 C-0.99 7.67 -1.98 7.34 -3 7 C-2.25 2.25 -2.25 2.25 0 0 Z " fill="#ABABAB" transform="translate(232,33)"/>
<path d="M0 0 C0.33 0.99 0.66 1.98 1 3 C-0.32 3.99 -1.64 4.98 -3 6 C-3.66 4.68 -4.32 3.36 -5 2 C-3.35 1.34 -1.7 0.68 0 0 Z " fill="#ACACAC" transform="translate(341,27)"/>
</svg>
