<?xml version="1.0" encoding="UTF-8"?>
<svg version="1.1" xmlns="http://www.w3.org/2000/svg" width="1060" height="220">
<path d="M0 0 C3.660786 1.220262 4.43377416 2.84323688 6.2109375 6.16015625 C7.81955613 9.91094524 7.12406931 13.20626607 6 17 C5.01 17 4.02 17 3 17 C3.495 17.99 3.495 17.99 4 19 C4.04022391 21.3329866 4.04320247 23.66706666 4 26 C2.35 26.33 0.7 26.66 -1 27 C-2.12857143 22.48571429 -2.12857143 22.48571429 -1.4375 19.875 C-1.293125 19.25625 -1.14875 18.6375 -1 18 C-1.66 17.01 -2.32 16.02 -3 15 C-3.66 17.64 -4.32 20.28 -5 23 C-5.75152344 23.08894531 -6.50304687 23.17789062 -7.27734375 23.26953125 C-10.50441451 24.13533072 -11.46685953 25.13480569 -13.5625 27.6875 C-14.12066406 28.35136719 -14.67882812 29.01523437 -15.25390625 29.69921875 C-17.29499664 32.38870921 -19.1528232 35.17466831 -21 38 C-20.21753906 38.83144531 -19.43507813 39.66289063 -18.62890625 40.51953125 C-17.60652057 41.61695441 -16.58439887 42.71462352 -15.5625 43.8125 C-15.04623047 44.35970703 -14.52996094 44.90691406 -13.99804688 45.47070312 C-11.68923395 47.96059942 -10.08641486 49.74075542 -9 53 C-19.37757848 54.0735426 -19.37757848 54.0735426 -23.35546875 51.44140625 C-25.05193565 49.70296491 -26.57568539 47.96595538 -28 46 C-28.78375 46.78375 -29.5675 47.5675 -30.375 48.375 C-35 53 -35 53 -37.8203125 53.1953125 C-38.91085937 53.17210937 -40.00140625 53.14890625 -41.125 53.125 C-42.22070312 53.10695312 -43.31640625 53.08890625 -44.4453125 53.0703125 C-45.28835938 53.04710937 -46.13140625 53.02390625 -47 53 C-45.3718356 49.24269753 -42.98598083 46.383177 -40.375 43.25 C-39.55773437 42.26515625 -38.74046875 41.2803125 -37.8984375 40.265625 C-36.95871094 39.14414063 -36.95871094 39.14414063 -36 38 C-37.92174691 33.56986765 -41.06032698 30.51545046 -44.3203125 27.0234375 C-46 25 -46 25 -46 23 C-42.7 23 -39.4 23 -36 23 C-35.896875 21.906875 -35.79375 20.81375 -35.6875 19.6875 C-35 16 -35 16 -33.48828125 14.55078125 C-31.53970718 12.52037729 -31.61082744 11.27068589 -31.5 8.5 C-31.39155487 5.78887177 -31.27827413 4.40044327 -29.71875 2.15625 C-28 1 -28 1 -25.8125 1.3125 C-25.214375 1.539375 -24.61625 1.76625 -24 2 C-23.64949536 7.841744 -23.83272665 11.8531808 -27 17 C-26.01 17 -25.02 17 -24 17 C-23.67 15.35 -23.34 13.7 -23 12 C-21.02 12 -19.04 12 -17 12 C-16.95101563 11.36191406 -16.90203125 10.72382813 -16.8515625 10.06640625 C-16.77679688 9.24011719 -16.70203125 8.41382813 -16.625 7.5625 C-16.55539062 6.73878906 -16.48578125 5.91507812 -16.4140625 5.06640625 C-16.27742188 4.38449219 -16.14078125 3.70257812 -16 3 C-12.97203182 1.48601591 -11.09751231 2.67433753 -7.9375 3.6875 C-6.85339844 4.02136719 -5.76929688 4.35523438 -4.65234375 4.69921875 C-3.77707031 5.12847656 -2.90179688 5.55773437 -2 6 C-1.31640625 8.08203125 -1.31640625 8.08203125 -1 10 C-0.01 10.33 0.98 10.66 2 11 C1.855625 10.29875 1.71125 9.5975 1.5625 8.875 C0.98521625 5.92443859 0.48304859 2.96729849 0 0 Z M-14 10 C-14.17015625 10.63808594 -14.3403125 11.27617187 -14.515625 11.93359375 C-14.75796875 12.75988281 -15.0003125 13.58617187 -15.25 14.4375 C-15.48203125 15.26121094 -15.7140625 16.08492187 -15.953125 16.93359375 C-17 19 -17 19 -19.109375 19.78515625 C-19.73328125 19.85605469 -20.3571875 19.92695313 -21 20 C-21 20.99 -21 21.98 -21 23 C-17.7 23 -14.4 23 -11 23 C-11.33 20.69 -11.66 18.38 -12 16 C-10.35 16 -8.7 16 -7 16 C-6.67 14.68 -6.34 13.36 -6 12 C-8.90600261 10.74335022 -10.79604584 10 -14 10 Z " fill="#010101" transform="translate(367,1)"/>
<path d="M0 0 C3.7125 -0.061875 7.425 -0.12375 11.25 -0.1875 C12.4143457 -0.21481201 13.57869141 -0.24212402 14.77832031 -0.27026367 C16.16422363 -0.28150269 16.16422363 -0.28150269 17.578125 -0.29296875 C18.52075195 -0.3086792 19.46337891 -0.32438965 20.43457031 -0.34057617 C23.49322096 0.06547804 24.81961188 0.83915719 27 3 C27.875 6.5 27.875 6.5 28 10 C27.01 11.485 27.01 11.485 26 13 C26.495 13.495 26.99 13.99 27.5 14.5 C29.59103757 17.98506262 29.75892596 21.02583932 29 25 C27.12984906 27.43119623 25.71861655 28.64069173 23 30 C21.2595583 30.08449628 19.51590278 30.10723024 17.7734375 30.09765625 C16.84450684 30.09515869 15.91557617 30.09266113 14.95849609 30.09008789 C13.77594238 30.08098389 12.59338867 30.07187988 11.375 30.0625 C5.744375 30.0315625 5.744375 30.0315625 0 30 C0 20.1 0 10.2 0 0 Z M10 7 C10 8.32 10 9.64 10 11 C12.31 11 14.62 11 17 11 C17 9.68 17 8.36 17 7 C14.69 7 12.38 7 10 7 Z M10 18 C10 19.65 10 21.3 10 23 C12.64 23 15.28 23 18 23 C18.59070014 21.05396726 18.59070014 21.05396726 19 19 C18.01732141 17.79438816 18.01732141 17.79438816 16.15234375 17.90234375 C14.1015625 17.93489583 12.05078125 17.96744792 10 18 Z " fill="#000000" transform="translate(261,24)"/>
<path d="M0 0 C9 0 9 0 12.21484375 2.51953125 C13.1485309 3.5950443 14.05614101 4.69370316 14.9375 5.8125 C15.40478516 6.35970703 15.87207031 6.90691406 16.35351562 7.47070312 C18.3991831 9.89204554 20.24123145 12.36184718 22 15 C22.33 10.05 22.66 5.1 23 0 C25.97 0 28.94 0 32 0 C32 9.9 32 19.8 32 30 C22 30 22 30 19.16015625 27.953125 C18.46792969 27.06109375 17.77570312 26.1690625 17.0625 25.25 C16.35222656 24.36828125 15.64195313 23.4865625 14.91015625 22.578125 C13.96462891 21.30195312 13.96462891 21.30195312 13 20 C12.01 18.68 11.02 17.36 10 16 C9.67 20.62 9.34 25.24 9 30 C6.03 30 3.06 30 0 30 C0 20.1 0 10.2 0 0 Z " fill="#000000" transform="translate(43,24)"/>
<path d="M0 0 C3.526875 -0.103125 7.05375 -0.20625 10.6875 -0.3125 C11.79053467 -0.35802002 12.89356934 -0.40354004 14.0300293 -0.45043945 C18.79391447 -0.5179783 21.24257868 -0.53865157 25.21875 2.2890625 C27 5 27 5 26.8125 8.6875 C26.544375 9.780625 26.27625 10.87375 26 12 C25.81509993 14.32357511 25.81509993 14.32357511 28 17 C28.6779661 24.11864407 28.6779661 24.11864407 26.125 27.4375 C22.83088801 29.85964117 21.03839432 30.12091031 16.9921875 30.09765625 C16.1038623 30.09515869 15.21553711 30.09266113 14.30029297 30.09008789 C13.16994629 30.08098389 12.03959961 30.07187988 10.875 30.0625 C5.491875 30.0315625 5.491875 30.0315625 0 30 C0 20.1 0 10.2 0 0 Z M9 7 C9 8.32 9 9.64 9 11 C11.31 11 13.62 11 16 11 C16 9.68 16 8.36 16 7 C13.69 7 11.38 7 9 7 Z M9 18 C9 19.65 9 21.3 9 23 C10.27875 23.061875 11.5575 23.12375 12.875 23.1875 C13.95394531 23.23970703 13.95394531 23.23970703 15.0546875 23.29296875 C15.69664063 23.19628906 16.33859375 23.09960938 17 23 C17.66 22.01 18.32 21.02 19 20 C17.23863645 17.81668311 17.23863645 17.81668311 15.0546875 17.8046875 C12.02734375 17.90234375 12.02734375 17.90234375 9 18 Z " fill="#000000" transform="translate(78,24)"/>
<path d="M0 0 C1.79323699 1.21010614 3.31892344 2.61189219 4.84765625 4.140625 C5.15450362 7.56927403 5.12604494 11.01243128 5.16015625 14.453125 C5.18916016 15.41669922 5.21816406 16.38027344 5.24804688 17.37304688 C5.31226756 24.50154346 5.31226756 24.50154346 2.96484375 27.73046875 C-2.26658916 31.21487333 -6.97013819 31.82871295 -13.15234375 31.140625 C-16.49048647 30.26115278 -19.23456743 28.97868835 -21.81640625 26.62109375 C-23.8952672 22.76122035 -23.66543259 19.01916859 -23.65234375 14.703125 C-23.68070312 13.85685547 -23.7090625 13.01058594 -23.73828125 12.13867188 C-23.75226462 7.67448139 -23.61477176 5.73946927 -20.80859375 2.10546875 C-15.30508473 -1.96550925 -6.37377257 -2.54488197 0 0 Z M-14.15234375 9.140625 C-14.51010541 11.7044143 -14.51010541 11.7044143 -14.46484375 14.578125 C-14.48160156 15.54621094 -14.49835938 16.51429687 -14.515625 17.51171875 C-14.35187385 20.15122503 -14.35187385 20.15122503 -12.86328125 22.0078125 C-10.97883838 23.5100081 -10.97883838 23.5100081 -7.46484375 22.828125 C-6.37171875 22.60125 -5.27859375 22.374375 -4.15234375 22.140625 C-4.15234375 17.520625 -4.15234375 12.900625 -4.15234375 8.140625 C-7.80664646 6.31347364 -11.24256891 6.23085016 -14.15234375 9.140625 Z " fill="#000000" transform="translate(315.15234375,23.859375)"/>
<path d="M0 0 C1.79244141 0.01740234 1.79244141 0.01740234 3.62109375 0.03515625 C5.41740234 0.04869141 5.41740234 0.04869141 7.25 0.0625 C8.17683594 0.07410156 9.10367188 0.08570312 10.05859375 0.09765625 C12.66635778 6.34095012 15.03061091 12.66559177 17.30859375 19.03515625 C17.57881348 19.78079834 17.8490332 20.52644043 18.12744141 21.29467773 C19.20983378 24.34939087 20.05859375 26.83189297 20.05859375 30.09765625 C16.75859375 30.09765625 13.45859375 30.09765625 10.05859375 30.09765625 C9.72859375 28.77765625 9.39859375 27.45765625 9.05859375 26.09765625 C5.42859375 26.09765625 1.79859375 26.09765625 -1.94140625 26.09765625 C-2.27140625 27.41765625 -2.60140625 28.73765625 -2.94140625 30.09765625 C-6.24140625 30.09765625 -9.54140625 30.09765625 -12.94140625 30.09765625 C-11.14996332 23.13093376 -9.08055056 16.29756944 -6.81640625 9.47265625 C-6.55069824 8.66650879 -6.28499023 7.86036133 -6.01123047 7.02978516 C-3.69706916 0.12274466 -3.69706916 0.12274466 0 0 Z M3.05859375 10.09765625 C2.39859375 12.40765625 1.73859375 14.71765625 1.05859375 17.09765625 C2.70859375 17.09765625 4.35859375 17.09765625 6.05859375 17.09765625 C5.39859375 14.78765625 4.73859375 12.47765625 4.05859375 10.09765625 C3.72859375 10.09765625 3.39859375 10.09765625 3.05859375 10.09765625 Z " fill="#000000" transform="translate(238.94140625,23.90234375)"/>
<path d="M0 0 C7.59 0 15.18 0 23 0 C23 2.64 23 5.28 23 8 C18.71 8 14.42 8 10 8 C10 8.66 10 9.32 10 10 C13.63 10 17.26 10 21 10 C20.5020163 13.73487777 20.12508244 15.81237635 18 19 C16.0546875 19.29296875 16.0546875 19.29296875 13.875 19.1875 C12.59625 19.125625 11.3175 19.06375 10 19 C10 19.99 10 20.98 10 22 C14.29 22 18.58 22 23 22 C23 24.64 23 27.28 23 30 C15.41 30 7.82 30 0 30 C0 20.1 0 10.2 0 0 Z " fill="#000000" transform="translate(173,24)"/>
<path d="M0 0 C2.97 0 5.94 0 9 0 C9.33 7.26 9.66 14.52 10 22 C13.96 21.505 13.96 21.505 18 21 C18.33 14.07 18.66 7.14 19 0 C21.97 0 24.94 0 28 0 C28.17456339 4.0619557 28.2809442 8.12294587 28.375 12.1875 C28.45041016 13.91323242 28.45041016 13.91323242 28.52734375 15.67382812 C28.67250542 24.0206244 28.67250542 24.0206244 26.70361328 26.88793945 C22.10142009 30.78172711 17.97855587 31.30658292 12.09375 31.21875 C7.88091 30.77860254 4.29582804 29.35436145 1.3190918 26.24316406 C-0.33964729 23.4224173 -0.34495926 21.6174471 -0.29296875 18.359375 C-0.28330078 17.28945313 -0.27363281 16.21953125 -0.26367188 15.1171875 C-0.23853516 14.00601563 -0.21339844 12.89484375 -0.1875 11.75 C-0.17396484 10.62335937 -0.16042969 9.49671875 -0.14648438 8.3359375 C-0.11115645 5.55680736 -0.0618252 2.77864637 0 0 Z " fill="#000000" transform="translate(12,24)"/>
<path d="M0 0 C7.26 0 14.52 0 22 0 C22 2.64 22 5.28 22 8 C17.71 8 13.42 8 9 8 C9 8.66 9 9.32 9 10 C12.63 10 16.26 10 20 10 C20.33 10.66 20.66 11.32 21 12 C20.06421005 14.35981813 19.06652192 16.69631264 18 19 C15.03 19 12.06 19 9 19 C9 19.99 9 20.98 9 22 C13.29 22 17.58 22 22 22 C22 24.64 22 27.28 22 30 C14.74 30 7.48 30 0 30 C0 20.1 0 10.2 0 0 Z " fill="#000000" transform="translate(109,24)"/>
<path d="M0 0 C3.3 0 6.6 0 10 0 C14.40774487 10.37357631 14.40774487 10.37357631 15 16 C15.66 16 16.32 16 17 16 C17.0825 15.21625 17.165 14.4325 17.25 13.625 C18.24365069 8.822355 20.08713518 4.50190511 22 0 C25.3 0 28.6 0 32 0 C29.4620369 10.30114435 25.74757558 20.0920262 22 30 C18.04 30 14.08 30 10 30 C8.57180601 26.05043587 7.14775072 22.09941203 5.72753906 18.14697266 C5.24365357 16.80216068 4.75863256 15.45775672 4.27246094 14.11376953 C3.57449334 12.18367547 2.88060102 10.25215863 2.1875 8.3203125 C1.76855469 7.15773926 1.34960938 5.99516602 0.91796875 4.79736328 C0 2 0 2 0 0 Z " fill="#000000" transform="translate(198,24)"/>
<path d="M0 0 C2.97 0 5.94 0 9 0 C9 7.26 9 14.52 9 22 C13.95 22 18.9 22 24 22 C24 24.64 24 27.28 24 30 C16.08 30 8.16 30 0 30 C0 20.1 0 10.2 0 0 Z " fill="#000000" transform="translate(134,24)"/>
<path d="M0 0 C3.660786 1.220262 4.43377416 2.84323688 6.2109375 6.16015625 C7.81955613 9.91094524 7.12406931 13.20626607 6 17 C5.01 17 4.02 17 3 17 C3.33 17.66 3.66 18.32 4 19 C4.04022391 21.3329866 4.04320247 23.66706666 4 26 C2.35 26.33 0.7 26.66 -1 27 C-2.12857143 22.48571429 -2.12857143 22.48571429 -1.4375 19.875 C-1.2209375 18.946875 -1.2209375 18.946875 -1 18 C-1.66 17.01 -2.32 16.02 -3 15 C-3.66 17.64 -4.32 20.28 -5 23 C-7.875 23.125 -7.875 23.125 -11 23 C-13 21 -13 21 -13.125 18.375 C-13.08375 17.59125 -13.0425 16.8075 -13 16 C-11.35 15.67 -9.7 15.34 -8 15 C-8 14.01 -8 13.02 -8 12 C-9.98 11.34 -11.96 10.68 -14 10 C-14.12375 11.27875 -14.2475 12.5575 -14.375 13.875 C-14.75 17.75 -14.75 17.75 -17 20 C-20.29714793 19.67028521 -21.6226839 19.3773161 -24 17 C-23.625 14.375 -23.625 14.375 -23 12 C-21.02 12 -19.04 12 -17 12 C-16.95101563 11.36191406 -16.90203125 10.72382813 -16.8515625 10.06640625 C-16.77679688 9.24011719 -16.70203125 8.41382813 -16.625 7.5625 C-16.55539062 6.73878906 -16.48578125 5.91507812 -16.4140625 5.06640625 C-16.20910156 4.04353516 -16.20910156 4.04353516 -16 3 C-12.97203182 1.48601591 -11.09751231 2.67433753 -7.9375 3.6875 C-6.85339844 4.02136719 -5.76929688 4.35523438 -4.65234375 4.69921875 C-3.77707031 5.12847656 -2.90179688 5.55773437 -2 6 C-1.31640625 8.08203125 -1.31640625 8.08203125 -1 10 C-0.01 10.33 0.98 10.66 2 11 C1.855625 10.29875 1.71125 9.5975 1.5625 8.875 C0.98521625 5.92443859 0.48304859 2.96729849 0 0 Z " fill="#7F7F7F" transform="translate(367,1)"/>
<path d="M0 0 C4.62 0 9.24 0 14 0 C14 9.9 14 19.8 14 30 C11.03 30 8.06 30 5 30 C5 22.74 5 15.48 5 8 C3.35 7.67 1.7 7.34 0 7 C0 4.69 0 2.38 0 0 Z " fill="#000000" transform="translate(157,24)"/>
<path d="M0 0 C0.598125 0.226875 1.19625 0.45375 1.8125 0.6875 C2.16300464 6.529244 1.97977335 10.5406808 -1.1875 15.6875 C-0.383125 15.935 0.42125 16.1825 1.25 16.4375 C3.8125 17.6875 3.8125 17.6875 4.875 19.4375 C4.77807312 22.92686759 2.85470835 24.96455554 0.8125 27.6875 C-6.50164868 26.24865108 -6.50164868 26.24865108 -9.25 24 C-10.63733306 20.57791179 -10.08562461 18.21584669 -9.1875 14.6875 C-8.68476563 14.21441406 -8.18203125 13.74132813 -7.6640625 13.25390625 C-5.73730589 11.20991313 -5.79818315 9.95457864 -5.6875 7.1875 C-5.57905487 4.47637177 -5.46577413 3.08794327 -3.90625 0.84375 C-2.1875 -0.3125 -2.1875 -0.3125 0 0 Z " fill="#7E7E7E" transform="translate(341.1875,2.3125)"/>
</svg>
